<svg width="21" height="18" fill="none" xmlns="http://www.w3.org/2000/svg"><path fill-rule="evenodd" clip-rule="evenodd" d="M5.21 10.409L.37 8.63a.559.559 0 01-.005-1.05L20.224.038c.42-.16.855.202.764.638l-3.564 16.876a.573.573 0 01-.894.34l-4.865-3.478a.815.815 0 00-.98.027l-2.698 2.165a.573.573 0 01-.904-.268l-1.873-5.93zm11.028-6.68L6.78 9.461a.93.93 0 00-.416 1.055l1.022 3.537c.073.25.442.225.478-.034l.265-1.94c.05-.365.228-.701.502-.953l7.805-7.142c.145-.133-.03-.36-.2-.257z" fill="#fff"/></svg>