<svg width="15" height="15" fill="none" xmlns="http://www.w3.org/2000/svg"><path fill-rule="evenodd" clip-rule="evenodd" d="M1 7.5C1 3.916 3.916 1 7.5 1S14 3.916 14 7.5 11.084 14 7.5 14A6.507 6.507 0 011 7.5zm.852 0A5.654 5.654 0 007.5 13.148 5.654 5.654 0 0013.147 7.5 5.654 5.654 0 007.5 1.853 5.654 5.654 0 001.852 7.5z" fill="#53B43B"/><path d="M13.147 7.5h-.25.25zM7.5.75A6.757 6.757 0 00.75 7.5h.5A6.257 6.257 0 017.5 1.25v-.5zm6.75 6.75A6.757 6.757 0 007.5.75v.5a6.257 6.257 0 016.25 6.25h.5zM7.5 14.25a6.757 6.757 0 006.75-6.75h-.5a6.257 6.257 0 01-6.25 6.25v.5zM.75 7.5a6.757 6.757 0 006.75 6.75v-.5A6.257 6.257 0 011.25 7.5h-.5zm6.75 5.398A5.404 5.404 0 012.102 7.5h-.5A5.904 5.904 0 007.5 13.398v-.5zM12.897 7.5A5.404 5.404 0 017.5 12.898v.5A5.904 5.904 0 0013.397 7.5h-.5zM7.5 2.103A5.404 5.404 0 0112.897 7.5h.5A5.904 5.904 0 007.5 1.603v.5zM2.102 7.5A5.404 5.404 0 017.5 2.103v-.5A5.904 5.904 0 001.602 7.5h.5z" fill="#53B43B"/><path d="M9.292 5.139L6.028 8.858l-1.32-1.503a.38.38 0 00-.586 0 .52.52 0 000 .669l1.612 1.838a.39.39 0 00.294.138.39.39 0 00.293-.139h.001l3.556-4.054a.52.52 0 000-.668.38.38 0 00-.586 0z" fill="#53B43B" stroke="#53B43B" stroke-width=".5"/></svg>