<svg width="136" height="39" fill="none" xmlns="http://www.w3.org/2000/svg"><path d="M33.008 33.268c-3.675 3.64-8.147 5.46-13.416 5.46-5.27 0-9.741-1.82-13.416-5.46C2.536 29.593.716 25.104.716 19.8s1.82-9.776 5.46-13.416C9.851 2.709 14.323.872 19.592.872c5.27 0 9.741 1.837 13.416 5.512 3.675 3.64 5.512 8.112 5.512 13.416s-1.837 9.793-5.512 13.468zM11.22 28.38c2.253 2.219 5.044 3.328 8.372 3.328 3.328 0 6.119-1.11 8.372-3.328 2.253-2.253 3.38-5.113 3.38-8.58 0-3.467-1.127-6.327-3.38-8.58s-5.044-3.38-8.372-3.38c-3.328 0-6.119 1.127-8.372 3.38s-3.38 5.113-3.38 8.58c0 3.467 1.127 6.327 3.38 8.58zM65.3 8.464H50.74v8.632h14.144v6.864H50.74V38h-7.176V1.6H65.3v6.864zM84.984 1.6c4.992 0 9.152 1.75 12.48 5.252 3.363 3.501 5.044 7.817 5.044 12.948 0 5.13-1.681 9.447-5.044 12.948C94.136 36.249 89.976 38 84.984 38H70.528V1.6h14.456zm0 29.536c3.155 0 5.72-1.04 7.696-3.12 1.976-2.115 2.964-4.853 2.964-8.216 0-3.363-.988-6.084-2.964-8.164-1.976-2.115-4.54-3.172-7.696-3.172h-7.28v22.672h7.28zM127.567 38l-7.332-12.636h-5.46V38h-7.176V1.6h14.56c3.362 0 6.222 1.179 8.58 3.536 2.357 2.357 3.536 5.2 3.536 8.528 0 2.253-.642 4.35-1.924 6.292-1.283 1.907-2.982 3.345-5.096 4.316L135.315 38h-7.748zM114.775 8.308v10.764h7.384c1.352 0 2.513-.52 3.484-1.56.97-1.075 1.456-2.357 1.456-3.848 0-1.49-.486-2.756-1.456-3.796-.971-1.04-2.132-1.56-3.484-1.56h-7.384z" fill="#E1E1E1"/></svg>